#!OML:ASF H:\LiuWeirdWalks\Patient Classification 1\Patient 1\Session 1\male.ASF
:FULLY-SPECIFIED
:DEGREES
296
root 2.09887 17.3462 -11.3111 3.61399 6.78456 -2.2639
lowerback 15.803 2.30534 1.22009
upperback -0.399327 3.60296 3.23139
thorax -9.46473 1.75801 1.94658
lowerneck -20.7731 -1.76839 4.0779
upperneck 17.0481 -2.44723 -5.68967
head 8.60549 -1.51031 -2.93122
rclavicle 1.55052e-014 3.65764e-014
rhumerus -33.4177 1.42504 -76.3542
rradius 44.4449
rwrist -10.9376
rhand -19.3799 1.48857
rfingers 7.12502
rthumb 6.93843 -28.3777
lclavicle 1.55052e-014 3.65764e-014
lhumerus -37.6521 -1.38362 87.267
lradius 31.0506
lwrist 6.7572
lhand -16.5602 -6.98885
lfingers 7.12502
lthumb 9.65974 22.7697
rfemur -28.0618 -10.3101 15.7263
rtibia 85.2938
rfoot -2.12291 -15.6068
rtoes -5.32094
lfemur -20.8977 -12.6909 -24.4075
ltibia 44.7453
lfoot -18.8174 23.2988
ltoes -5.57805
297
root 2.0967 17.3436 -11.2182 3.93477 6.82566 -2.18108
lowerback 15.7489 2.30993 1.20204
upperback -0.431005 3.60467 3.2247
thorax -9.46949 1.75969 1.9506
lowerneck -20.7153 -1.78407 4.03492
upperneck 16.8822 -2.46193 -5.67218
head 8.53904 -1.5183 -2.91456
rclavicle -2.66371e-014 -3.02153e-014
rhumerus -33.136 1.10425 -76.3267
rradius 44.1673
rwrist -11.0586
rhand -19.3474 1.61434
rfingers 7.12502
rthumb 6.96986 -28.2509
lclavicle -2.66371e-014 -3.02153e-014
lhumerus -37.3804 -1.82875 87.4472
lradius 31.3748
lwrist 6.82678
lhand -16.5409 -6.99141
lfingers 7.12502
lthumb 9.67827 22.7662
rfemur -28.1865 -10.3459 15.7123
rtibia 85.2152
rfoot -2.03692 -15.3551
rtoes -5.44195
lfemur -20.8715 -12.7745 -24.4518
ltibia 44.7223
lfoot -18.8558 23.4807
ltoes -5.58545
298
root 2.09465 17.3375 -11.1249 4.24024 6.85978 -2.10664
lowerback 15.703 2.31638 1.20091
upperback -0.455119 3.61187 3.2176
thorax -9.46962 1.76313 1.94312
lowerneck -20.6702 -1.80886 3.95601
upperneck 16.7424 -2.48487 -5.6217
head 8.48433 -1.52887 -2.88277
rclavicle -6.95746e-015 1.43125e-014
rhumerus -32.8468 0.811645 -76.3163
rradius 43.9135
rwrist -11.2185
rhand -19.2807 1.71298
rfingers 7.12502
rthumb 7.03415 -28.1501
lclavicle -6.95746e-015 1.43125e-014
lhumerus -37.1035 -2.24463 87.6014
lradius 31.6912
lwrist 6.92499
lhand -16.5209 -7.0086
lfingers 7.12502
lthumb 9.69758 22.7482
rfemur -28.2858 -10.3824 15.7119
rtibia 85.1398
rfoot -1.99325 -15.0938
rtoes -5.61199
lfemur -20.8647 -12.8378 -24.4912
ltibia 44.7702
lfoot -18.8991 23.6563
ltoes -5.5589
299
root 2.09228 17.3278 -11.0314 4.53317 6.88815 -2.03218
lowerback 15.6735 2.32716 1.19998
upperback -0.481522 3.62505 3.20626
thorax -9.48153 1.76919 1.92895
lowerneck -20.5589 -1.84157 3.86396
upperneck 16.5304 -2.51931 -5.54895
head 8.39371 -1.54291 -2.83955
rclavicle -2.80286e-014 -1.11319e-014
rhumerus -32.5624 0.542825 -76.3263
rradius 43.6787
rwrist -11.3791
rhand -19.2016 1.80279
rfingers 7.12502
rthumb 7.11057 -28.0578
lclavicle -2.80286e-014 -1.11319e-014
lhumerus -36.8439 -2.65618 87.737
lradius 32.0196
lwrist 7.05573
lhand -16.5286 -6.99602
lfingers 7.12502
lthumb 9.69018 22.7611
rfemur -28.3662 -10.4233 15.7177
rtibia 85.0757
rfoot -2.00367 -14.8511
rtoes -5.83572
lfemur -20.8791 -12.8884 -24.533
ltibia 44.8845
lfoot -18.9393 23.8306
ltoes -5.50745
300
root 2.0897 17.3153 -10.9372 4.81178 6.91344 -1.96042
lowerback 15.6548 2.33784 1.19816
upperback -0.508478 3.63826 3.19441
thorax -9.5002 1.77523 1.91438
lowerneck -20.4485 -1.87122 3.77939
upperneck 16.3332 -2.55089 -5.47912
head 8.30852 -1.55536 -2.79872
rclavicle -2.42517e-014 -4.6118e-014
rhumerus -32.263 0.310629 -76.3586
rradius 43.4469
rwrist -11.5218
rhand -19.1374 1.88361
rfingers 7.12502
rthumb 7.17249 -27.9748
lclavicle -2.42517e-014 -4.6118e-014
lhumerus -36.5906 -3.03674 87.8484
lradius 32.3458
lwrist 7.23884
lhand -16.5381 -6.98743
lfingers 7.12502
lthumb 9.68103 22.7701
rfemur -28.4256 -10.478 15.7333
rtibia 85.0252
rfoot -2.07173 -14.6622
rtoes -6.11064
lfemur -20.9067 -12.9231 -24.5753
ltibia 45.0598
lfoot -18.9753 23.996
ltoes -5.44806
301
root 2.08684 17.2997 -10.8429 5.08673 6.93564 -1.87151
lowerback 15.6461 2.35098 1.17607
upperback -0.532439 3.65052 3.17603
thorax -9.52206 1.78156 1.9041
lowerneck -20.3747 -1.89223 3.71318
upperneck 16.144 -2.57488 -5.4196
head 8.23259 -1.56446 -2.76453
rclavicle 6.16232e-015 2.38542e-015
rhumerus -31.9432 0.119248 -76.4129
rradius 43.2278
rwrist -11.618
rhand -19.1251 1.95875
rfingers 7.12502
rthumb 7.1844 -27.8993
lclavicle 6.16232e-015 2.38542e-015
lhumerus -36.3302 -3.3911 87.9358
lradius 32.6674
lwrist 7.42308
lhand -16.551 -7.00414
lfingers 7.12502
lthumb 9.66858 22.754
rfemur -28.4833 -10.5516 15.7354
rtibia 84.9994
rfoot -2.19578 -14.5457
rtoes -6.36445
lfemur -20.9575 -12.9435 -24.6386
ltibia 45.294
lfoot -19.009 24.1467
ltoes -5.36376
302
root 2.08358 17.281 -10.7486 5.35801 6.93663 -1.77517
lowerback 15.6546 2.374 1.14179
upperback -0.562967 3.67362 3.14939
thorax -9.56144 1.79331 1.88853
lowerneck -20.3351 -1.91747 3.65095
upperneck 16.006 -2.60627 -5.35614
head 8.17955 -1.57651 -2.73259
rclavicle 2.44505e-014 1.59028e-014
rhumerus -31.628 -0.0387573 -76.4876
rradius 43.0297
rwrist -11.664
rhand -19.1674 2.06024
rfingers 7.12502
rthumb 7.14358 -27.7992
lclavicle 2.44505e-014 1.59028e-014
lhumerus -36.0733 -3.71652 87.9924
lradius 32.9766
lwrist 7.58934
lhand -16.5643 -7.05021
lfingers 7.12502
lthumb 9.65577 22.7085
rfemur -28.5557 -10.6299 15.7361
rtibia 85.0056
rfoot -2.36318 -14.5039
rtoes -6.62968
lfemur -21.034 -12.9311 -24.7115
ltibia 45.5869
lfoot -19.0419 24.2772
ltoes -5.27453
303
root 2.07981 17.2595 -10.6545 5.6232 6.91466 -1.67164
lowerback 15.6723 2.40733 1.09106
upperback -0.588981 3.70687 3.1173
thorax -9.60214 1.81052 1.87363
lowerneck -20.3108 -1.92486 3.63906
upperneck 15.8972 -2.62257 -5.31837
head 8.13868 -1.58107 -2.71676
rclavicle 3.4191e-014 1.59028e-015
rhumerus -31.2968 -0.169526 -76.5764
rradius 42.8523
rwrist -11.6627
rhand -19.2547 2.13014
rfingers 7.12502
rthumb 7.05932 -27.7321
lclavicle 3.4191e-014 1.59028e-015
lhumerus -35.8114 -4.0066 88.0197
lradius 33.2906
lwrist 7.72475
lhand -16.5701 -7.07064
lfingers 7.12502
lthumb 9.65014 22.6883
rfemur -28.6475 -10.7094 15.7336
rtibia 85.0487
rfoot -2.55657 -14.5269
rtoes -6.79267
lfemur -21.1357 -12.877 -24.7928
ltibia 45.9417
lfoot -19.0826 24.3784
ltoes -5.2248
304
root 2.07551 17.2354 -10.5607 5.88467 6.86433 -1.57135
lowerback 15.6992 2.45141 1.03613
upperback -0.613129 3.75333 3.08114
thorax -9.64647 1.83407 1.85319
lowerneck -20.3589 -1.93085 3.61978
upperneck 15.8499 -2.63824 -5.26533
head 8.13134 -1.5846 -2.69747
rclavicle -5.96354e-016 -1.11319e-014
rhumerus -30.9549 -0.279065 -76.6729
rradius 42.7035
rwrist -11.6327
rhand -19.3561 2.19372
rfingers 7.12502
rthumb 6.9614 -27.6718
lclavicle -5.96354e-016 -1.11319e-014
lhumerus -35.5426 -4.27051 88.0189
lradius 33.6064
lwrist 7.81567
lhand -16.5673 -7.09575
lfingers 7.12502
lthumb 9.65282 22.6631
rfemur -28.7712 -10.7809 15.741
rtibia 85.1284
rfoot -2.74684 -14.6046
rtoes -6.87118
lfemur -21.2729 -12.7686 -24.8669
ltibia 46.3637
lfoot -19.136 24.4354
ltoes -5.24218
305
root 2.07071 17.2085 -10.4673 6.14607 6.77977 -1.45586
lowerback 15.7365 2.50652 0.957132
upperback -0.63485 3.80903 3.03478
thorax -9.69522 1.86287 1.83262
lowerneck -20.4185 -1.903 3.69974
upperneck 15.7477 -2.62389 -5.28638
head 8.10641 -1.576 -2.71465
rclavicle 2.62396e-014 7.95139e-015
rhumerus -30.5929 -0.375595 -76.7753
rradius 42.5732
rwrist -11.5983
rhand -19.4596 2.29235
rfingers 7.12502
rthumb 6.86146 -27.5765
lclavicle 2.62396e-014 7.95139e-015
lhumerus -35.2714 -4.49634 87.986
lradius 33.9446
lwrist 7.87857
lhand -16.5534 -7.07914
lfingers 7.12502
lthumb 9.66627 22.6791
rfemur -28.9374 -10.843 15.7327
rtibia 85.2484
rfoot -2.92787 -14.7049
rtoes -6.86611
lfemur -21.4534 -12.5945 -24.9519
ltibia 46.8611
lfoot -19.1911 24.4381
ltoes -5.3814
306
root 2.06598 17.1794 -10.374 6.39606 6.66387 -1.32844
lowerback 15.7843 2.56347 0.864481
upperback -0.648088 3.86325 2.97728
thorax -9.74067 1.89126 1.80766
lowerneck -20.5041 -1.87059 3.77686
upperneck 15.6437 -2.60503 -5.29931
head 8.0858 -1.56485 -2.72856
rclavicle -9.93923e-016 7.95139e-015
rhumerus -30.1939 -0.444686 -76.8924
rradius 42.4563
rwrist -11.5911
rhand -19.5649 2.40763
rfingers 7.12502
rthumb 6.75986 -27.4645
lclavicle -9.93923e-016 7.95139e-015
lhumerus -35.0012 -4.68087 87.9112
lradius 34.2962
lwrist 7.93996
lhand -16.5192 -7.12449
lfingers 7.12502
lthumb 9.69924 22.6322
rfemur -29.1276 -10.8946 15.7043
rtibia 85.4012
rfoot -3.0756 -14.8162
rtoes -6.799
lfemur -21.669 -12.3472 -25.0463
ltibia 47.4445
lfoot -19.2543 24.3697
ltoes -5.69305
